<?xml version="1.0" encoding="utf-8"?>
<!DOCTYPE svg PUBLIC "-//W3C//DTD SVG 20010904//EN" "http://www.w3.org/TR/2001/REC-SVG-20010904/DTD/svg10.dtd">
<svg version="1.0" xmlns="http://www.w3.org/2000/svg" width="980pt" height="872pt" viewBox="0 0 980 872" preserveAspectRatio="xMidYMid meet">
<g fill="#A88A5FFE">
<path d="M 495.28 426.94 C 487.05 424.43 481.18 413.10 482.34 401.99 C 483.10 394.79 483.69 393.31 486.07 392.69 C 488.34 392.10 488.66 389.29 486.51 388.82 C 484.38 388.36 493.80 369.26 502.46 356.50 C 510.87 344.10 514.98 339.08 526.73 326.85 L 536.00 317.20 L 535.97 308.85 C 535.91 289.46 532.55 250.00 530.96 250.00 C 530.55 250.00 526.06 259.79 520.98 271.75 C 508.74 300.55 502.83 312.01 497.94 316.44 C 493.56 320.39 491.56 320.78 488.12 318.37 C 484.39 315.76 483.00 310.98 483.00 300.74 C 483.00 285.39 487.39 273.68 492.42 275.61 C 493.98 276.21 494.14 277.12 493.62 282.40 C 493.29 285.75 492.73 293.90 492.37 300.50 L 491.73 312.50 L 493.98 310.50 C 499.90 305.24 507.78 290.19 519.96 260.91 C 529.92 236.95 532.75 233.94 536.52 243.33 C 538.69 248.75 542.78 277.01 543.63 292.43 C 543.99 299.07 544.56 305.25 544.90 306.17 C 545.38 307.50 548.26 305.66 559.37 296.89 C 577.73 282.41 584.00 276.99 584.00 275.63 C 584.00 272.95 590.20 261.73 593.91 257.71 C 600.50 250.57 609.50 249.50 614.68 255.25 C 619.70 260.83 617.77 263.45 611.14 260.07 C 605.95 257.43 604.79 257.47 601.27 260.43 C 595.33 265.43 587.19 288.85 589.40 294.60 C 590.41 297.23 591.29 295.68 596.91 281.43 C 602.44 267.38 604.31 264.00 606.53 264.00 C 608.70 264.00 610.77 267.95 611.51 273.50 C 612.44 280.54 616.53 288.71 620.03 290.52 C 627.31 294.28 633.23 290.60 642.97 276.23 C 647.86 269.02 650.30 267.78 650.82 272.24 C 651.59 279.00 637.53 295.70 629.18 297.95 C 620.37 300.32 610.07 293.84 607.15 284.09 C 606.31 281.29 605.50 280.10 604.88 280.72 C 604.34 281.26 602.34 285.91 600.42 291.07 C 598.50 296.23 596.25 301.50 595.41 302.77 C 592.28 307.55 585.47 307.62 582.95 302.90 C 582.30 301.69 581.48 297.56 581.13 293.72 L 580.50 286.73 L 569.50 295.50 C 563.45 300.33 555.46 306.96 551.75 310.24 L 545.00 316.21 L 544.99 325.85 C 544.97 355.63 539.55 386.81 531.51 403.50 C 523.35 420.44 507.53 430.67 495.28 426.94ZM 506.12 420.98 C 515.81 418.29 526.10 402.54 529.96 384.50 C 532.70 371.68 534.95 353.59 535.67 338.50 L 536.29 325.50 L 534.01 327.50 C 529.21 331.71 511.10 353.92 505.10 362.94 C 489.23 386.84 484.10 405.59 490.67 415.73 C 494.62 421.82 498.44 423.12 506.12 420.98Z"/></g>
<g fill="#A88A5FFE">
<path d="M 365.22 472.75 C 363.23 470.33 361.93 459.08 358.27 412.50 L 354.58 365.50 L 354.49 292.50 C 354.44 252.35 354.06 217.70 353.65 215.50 C 352.33 208.46 350.76 203.00 350.06 203.00 C 349.14 203.00 344.75 207.87 342.73 211.14 C 338.35 218.22 329.60 242.23 323.57 263.73 C 320.28 275.44 312.73 310.68 310.00 327.00 C 306.00 350.95 302.06 364.59 297.37 370.75 C 291.32 378.70 284.95 371.52 281.61 353.00 C 280.77 348.32 279.38 333.70 278.52 320.50 C 277.04 297.80 276.39 291.56 275.29 289.70 C 273.76 287.10 268.48 297.26 264.55 310.40 C 259.42 327.54 256.35 345.83 253.01 379.00 C 247.85 430.29 244.57 446.73 239.15 448.45 C 227.87 452.03 216.98 417.69 211.50 361.25 C 206.57 310.45 208.87 239.38 215.97 223.33 C 217.93 218.90 220.55 217.66 221.68 220.61 C 222.02 221.50 221.54 229.04 220.61 237.36 C 213.47 301.33 218.52 386.59 232.02 430.20 C 235.16 440.34 236.07 441.82 237.84 439.69 C 239.48 437.71 242.66 417.99 245.52 392.00 C 250.56 346.19 254.36 324.20 260.62 304.65 C 266.08 287.59 270.75 280.97 276.33 282.37 C 281.81 283.74 283.81 293.61 287.05 335.50 C 288.09 348.85 288.83 353.73 291.10 362.32 C 291.89 365.31 292.40 365.91 293.43 365.06 C 295.68 363.19 297.78 354.66 305.55 316.00 C 313.73 275.25 314.21 273.14 320.09 252.67 C 329.09 221.37 339.04 200.62 347.04 196.48 C 349.90 195.00 350.34 195.02 353.21 196.69 C 357.12 198.98 359.59 203.73 361.74 213.11 C 363.26 219.72 363.44 229.03 363.48 301.50 C 363.52 385.40 364.96 429.61 368.54 456.46 C 370.53 471.43 370.47 474.00 368.12 474.00 C 367.09 474.00 365.78 473.44 365.22 472.75Z"/></g>
<g fill="#560730FE">
<path d="M 830.00 509.34 C 830.00 508.70 831.87 507.86 834.16 507.47 C 840.35 506.43 842.68 503.53 843.48 495.89 C 843.85 492.38 844.00 468.95 843.82 443.83 L 843.50 398.16 L 841.11 395.62 C 839.59 394.00 837.14 392.84 834.36 392.43 C 831.96 392.07 830.00 391.26 830.00 390.64 C 830.00 389.31 881.53 389.16 889.00 390.46 C 895.48 391.60 903.15 395.24 907.66 399.31 C 921.03 411.39 920.39 437.09 906.40 449.98 C 897.64 458.06 887.87 461.00 869.81 461.00 L 858.89 461.00 L 859.19 481.59 L 859.50 502.18 L 862.16 504.46 C 863.88 505.94 866.79 506.99 870.41 507.45 C 873.64 507.85 876.00 508.64 876.00 509.32 C 876.00 510.19 869.98 510.50 853.00 510.50 C 836.19 510.50 830.00 510.19 830.00 509.34ZM 882.74 456.83 C 889.01 455.26 895.42 449.14 898.06 442.22 C 901.08 434.29 901.78 420.61 899.60 412.00 C 896.26 398.75 889.14 393.01 875.11 392.23 C 859.20 391.35 859.00 391.82 859.00 429.30 C 859.00 444.90 859.34 458.02 859.75 458.44 C 860.69 459.41 877.02 458.27 882.74 456.83Z"/></g>
<g fill="#560730FE">
<path d="M 62.00 509.43 C 62.00 508.84 64.10 507.71 66.67 506.93 C 69.55 506.05 72.14 504.42 73.42 502.68 C 75.46 499.91 75.50 498.92 75.50 449.01 L 75.50 398.16 L 73.11 395.62 C 71.59 394.00 69.14 392.84 66.36 392.43 C 63.96 392.07 62.00 391.26 62.00 390.64 C 62.00 389.84 66.45 389.50 76.95 389.50 L 91.89 389.50 L 110.88 439.50 L 129.87 489.50 L 131.31 486.00 C 132.09 484.07 140.50 461.69 149.98 436.25 L 167.21 390.00 L 175.36 389.99 C 179.84 389.99 186.54 389.70 190.25 389.35 C 196.11 388.80 197.00 388.93 197.00 390.36 C 197.00 391.45 196.15 392.00 194.47 392.00 C 190.21 392.00 185.06 394.71 183.99 397.52 C 183.38 399.12 183.00 419.43 183.00 450.11 C 183.00 509.19 182.37 505.63 193.25 507.56 C 195.31 507.92 197.00 508.74 197.00 509.36 C 197.00 510.18 190.98 510.44 175.26 510.27 C 154.38 510.06 147.69 509.02 157.58 507.54 C 160.47 507.11 163.16 505.93 164.63 504.47 L 167.00 502.09 L 167.00 451.55 C 167.00 423.75 166.85 401.00 166.67 401.00 C 166.49 401.00 157.16 425.76 145.92 456.01 C 130.73 496.93 125.12 510.96 124.03 510.75 C 123.08 510.58 114.85 490.64 101.03 455.01 L 79.50 399.53 L 79.21 448.02 C 79.01 480.71 79.26 497.72 79.99 500.24 C 81.21 504.45 84.32 506.55 90.90 507.60 C 93.15 507.96 95.00 508.76 95.00 509.38 C 95.00 510.16 90.03 510.50 78.50 510.50 C 67.41 510.50 62.00 510.15 62.00 509.43Z"/></g>
<g fill="#560730FE">
<path d="M 390.00 509.34 C 390.00 508.70 391.87 507.86 394.16 507.47 C 400.35 506.43 402.68 503.53 403.48 495.89 C 403.85 492.38 404.00 468.95 403.82 443.83 L 403.50 398.16 L 401.11 395.62 C 399.59 394.00 397.14 392.84 394.36 392.43 C 391.96 392.07 390.00 391.26 390.00 390.64 C 390.00 389.82 396.11 389.50 411.50 389.50 C 428.03 389.50 433.00 389.79 433.00 390.75 C 433.00 391.44 431.94 392.00 430.65 392.00 C 426.34 392.00 421.96 394.17 420.47 397.06 C 419.30 399.32 419.00 404.64 419.00 423.08 L 419.00 446.26 L 423.09 445.60 C 428.53 444.73 433.80 441.92 437.63 437.84 C 444.55 430.46 460.46 409.18 462.72 404.27 C 464.85 399.64 464.98 398.72 463.81 396.27 C 462.83 394.20 461.42 393.26 458.25 392.56 C 455.91 392.04 454.00 391.06 454.00 390.39 C 454.00 389.46 458.15 389.20 471.02 389.33 C 485.35 389.47 488.00 389.73 487.77 390.96 C 487.61 391.76 486.07 392.71 484.33 393.07 C 478.08 394.34 472.29 398.84 464.80 408.24 C 448.84 428.23 440.00 439.88 440.00 440.91 C 440.00 443.00 482.01 500.91 485.41 503.50 C 487.31 504.95 490.14 506.48 491.68 506.89 C 493.23 507.31 494.62 508.29 494.78 509.07 C 495.01 510.27 491.97 510.50 476.03 510.50 C 462.16 510.50 457.00 510.18 457.00 509.33 C 457.00 508.69 458.32 507.87 459.93 507.52 C 464.50 506.51 465.43 504.73 463.41 500.82 C 460.15 494.53 434.23 456.49 431.37 453.81 C 428.31 450.95 424.09 449.00 420.93 449.00 C 419.07 449.00 419.00 449.95 419.00 473.85 C 419.00 505.17 419.21 505.89 428.75 507.47 C 431.09 507.86 433.00 508.70 433.00 509.34 C 433.00 510.18 427.17 510.50 411.50 510.50 C 395.83 510.50 390.00 510.18 390.00 509.34Z"/></g>
<g fill="#560730FE">
<path d="M 238.00 509.28 C 238.00 508.60 239.24 507.41 240.75 506.62 C 244.56 504.64 247.36 501.36 250.23 495.50 C 251.58 492.75 261.61 467.44 272.50 439.25 C 283.40 411.06 292.81 388.01 293.41 388.01 C 294.01 388.02 304.32 413.37 316.31 444.34 C 338.27 501.03 340.10 504.95 345.60 507.04 C 346.92 507.54 348.00 508.52 348.00 509.23 C 348.00 510.21 343.64 510.50 328.50 510.50 C 314.35 510.50 309.00 510.18 309.00 509.34 C 309.00 508.70 310.85 507.86 313.11 507.48 C 315.36 507.10 318.11 505.89 319.20 504.80 C 321.82 502.18 321.37 500.00 314.08 480.31 L 308.24 464.50 L 287.00 464.50 L 265.77 464.50 L 261.50 475.55 C 255.71 490.56 254.32 496.95 255.99 500.99 C 257.42 504.42 260.64 506.47 266.28 507.53 C 268.33 507.91 270.00 508.74 270.00 509.36 C 270.00 510.17 265.30 510.50 254.00 510.50 C 242.05 510.50 238.00 510.19 238.00 509.28ZM 306.20 461.47 C 306.82 460.85 287.92 409.99 287.07 410.01 C 286.65 410.02 274.24 441.87 267.17 461.09 C 266.82 462.04 305.25 462.41 306.20 461.47Z"/></g>
<g fill="#560730FE">
<path d="M 538.00 509.34 C 538.00 508.70 539.87 507.86 542.16 507.47 C 548.35 506.43 550.68 503.53 551.48 495.89 C 551.85 492.38 552.00 468.95 551.82 443.83 L 551.50 398.16 L 549.11 395.62 C 547.59 394.00 545.14 392.84 542.36 392.43 C 539.96 392.07 538.00 391.26 538.00 390.64 C 538.00 389.81 549.46 389.50 580.60 389.50 L 623.20 389.50 L 622.60 393.89 C 622.27 396.30 622.00 402.94 622.00 408.64 C 622.00 416.64 621.69 419.00 620.66 419.00 C 619.78 419.00 618.76 416.19 617.70 410.79 C 615.13 397.75 610.76 393.62 598.33 392.45 C 590.22 391.69 574.68 392.31 571.71 393.52 C 567.53 395.21 567.00 398.65 567.00 423.95 L 567.00 448.00 L 575.25 448.00 C 588.16 447.99 591.74 444.87 594.05 431.66 C 594.83 427.18 595.66 425.00 596.60 425.00 C 597.75 425.00 598.00 428.52 598.00 444.86 C 598.00 455.78 598.29 466.85 598.65 469.46 C 599.24 473.76 599.12 474.17 597.40 473.84 C 596.23 473.62 595.40 472.52 595.25 470.99 C 593.67 455.34 589.28 451.00 575.05 451.00 L 567.00 451.00 L 567.00 474.93 C 567.00 499.12 567.50 503.13 570.79 505.64 C 572.97 507.30 600.71 507.48 606.50 505.88 C 608.85 505.23 612.19 503.07 614.62 500.63 C 618.07 497.18 619.01 495.32 620.37 489.30 C 621.27 485.34 622.00 480.96 622.00 479.55 C 622.00 477.79 622.54 477.00 623.75 477.00 C 625.34 477.01 625.52 478.55 625.70 493.75 L 625.90 510.50 L 581.95 510.50 C 549.23 510.50 538.00 510.20 538.00 509.34Z"/></g>
<g fill="#560730FE">
<path d="M 717.50 511.59 C 706.39 508.84 697.59 501.84 693.44 492.46 C 689.83 484.31 689.00 473.66 689.00 435.74 C 689.00 396.87 688.76 395.16 682.96 393.14 C 681.17 392.51 678.64 392.00 677.35 392.00 C 676.06 392.00 675.00 391.44 675.00 390.75 C 675.00 389.79 679.97 389.50 696.50 389.50 C 711.89 389.50 718.00 389.82 718.00 390.64 C 718.00 391.26 716.04 392.07 713.64 392.43 C 710.85 392.84 708.41 394.00 706.89 395.62 L 704.50 398.16 L 704.50 438.83 C 704.50 481.26 704.97 487.09 709.02 495.00 C 711.18 499.21 715.25 503.13 720.00 505.58 C 722.62 506.92 725.65 507.36 732.00 507.30 C 748.86 507.13 757.83 500.69 762.50 485.42 C 764.99 477.25 765.98 460.01 765.69 430.00 C 765.37 397.54 765.14 396.47 758.02 393.62 C 755.79 392.73 753.07 392.00 751.98 392.00 C 750.89 392.00 750.00 391.44 750.00 390.75 C 750.00 389.80 753.97 389.50 766.50 389.50 C 778.03 389.50 783.00 389.84 783.00 390.62 C 783.00 391.24 781.22 392.03 779.05 392.38 C 776.88 392.72 773.84 394.09 772.30 395.42 L 769.50 397.82 L 768.92 437.16 C 768.28 480.87 767.72 485.47 761.65 496.50 C 754.34 509.78 735.79 516.12 717.50 511.59Z"/></g>
<g fill="#A88A5FFE">
<path d="M 451.20 340.44 C 445.86 338.19 443.53 332.23 443.51 320.73 C 443.50 312.53 443.29 311.25 442.21 312.73 C 435.87 321.38 426.64 327.93 420.72 327.98 C 413.98 328.03 406.31 321.99 403.38 314.33 C 402.47 311.95 401.38 310.00 400.96 310.00 C 400.54 310.00 398.27 314.97 395.94 321.05 C 393.20 328.17 390.80 332.80 389.21 334.05 C 384.56 337.71 379.66 336.04 378.05 330.24 C 373.90 315.31 383.49 288.45 395.10 282.45 C 402.40 278.67 413.00 282.81 413.00 289.43 C 413.00 291.56 410.83 291.40 406.08 288.92 C 402.57 287.10 401.76 287.01 399.34 288.17 C 393.37 291.05 386.50 305.72 385.36 318.05 C 384.27 329.81 386.27 327.40 393.97 307.69 C 399.06 294.68 400.77 292.27 403.77 293.88 C 405.13 294.60 406.15 296.40 406.55 298.76 C 409.67 317.24 416.40 324.51 425.80 319.58 C 429.54 317.62 435.07 311.57 439.36 304.75 C 441.35 301.59 443.62 299.00 444.40 299.00 C 445.28 299.00 446.66 296.41 448.00 292.25 C 451.68 280.80 457.11 274.19 460.51 277.00 C 462.43 278.61 462.40 280.98 460.41 283.82 C 458.89 285.99 459.00 286.28 462.94 290.55 C 469.55 297.72 471.46 305.20 469.98 318.14 C 468.11 334.56 460.03 344.15 451.20 340.44ZM 457.92 329.37 C 463.87 321.81 463.92 298.93 458.00 295.23 C 456.34 294.20 456.03 295.01 454.09 305.30 C 451.74 317.78 451.52 322.72 453.05 328.25 C 454.29 332.69 455.15 332.89 457.92 329.37Z"/></g>
<g fill="#A88A5FFE">
<path d="M 642.00 610.01 C 634.00 608.52 626.95 602.22 624.93 594.76 C 623.51 589.51 624.21 579.43 626.28 575.43 C 628.24 571.64 632.61 567.26 636.48 565.22 C 641.35 562.66 651.58 563.07 656.97 566.04 C 672.28 574.51 672.30 600.06 656.99 607.60 C 651.80 610.16 646.97 610.94 642.00 610.01ZM 653.91 606.26 C 658.79 602.70 660.50 597.57 660.50 586.50 C 660.50 578.21 660.15 575.90 658.45 573.00 C 655.27 567.59 650.37 564.73 645.26 565.29 C 635.73 566.33 631.60 572.72 631.54 586.52 C 631.51 594.23 631.86 596.25 634.00 600.41 C 638.27 608.69 647.04 611.27 653.91 606.26Z"/></g>
<g fill="#A88A5FFE">
<path d="M 283.00 610.01 C 275.00 608.52 267.95 602.22 265.93 594.76 C 264.51 589.51 265.21 579.43 267.28 575.43 C 269.24 571.64 273.61 567.26 277.48 565.22 C 282.35 562.66 292.58 563.07 297.97 566.04 C 313.28 574.51 313.30 600.06 297.99 607.60 C 292.80 610.16 287.97 610.94 283.00 610.01ZM 294.91 606.26 C 299.79 602.70 301.50 597.57 301.50 586.50 C 301.50 578.21 301.15 575.90 299.45 573.00 C 296.27 567.59 291.37 564.73 286.26 565.29 C 276.73 566.33 272.60 572.72 272.54 586.52 C 272.51 594.23 272.86 596.25 275.00 600.41 C 279.27 608.69 288.04 611.27 294.91 606.26Z"/></g>
<g fill="#A88A5FFE">
<path d="M 331.27 608.42 L 334.04 606.91 L 333.77 586.74 L 333.50 566.56 L 331.00 565.23 C 328.83 564.07 330.30 563.94 342.02 564.22 C 358.11 564.61 361.57 565.94 363.92 572.67 C 366.31 579.50 362.84 584.61 354.25 586.91 C 352.12 587.48 352.46 588.11 359.74 597.17 C 364.01 602.48 368.85 607.52 370.50 608.35 L 373.50 609.87 L 367.81 609.94 L 362.11 610.00 L 353.81 599.04 C 347.64 590.92 344.92 588.08 343.25 588.04 C 341.08 588.00 341.00 588.33 341.02 596.75 C 341.03 606.36 341.39 607.43 345.03 608.89 C 346.92 609.64 345.27 609.88 338.00 609.90 C 328.99 609.92 328.64 609.84 331.27 608.42ZM 352.46 584.45 C 360.31 580.73 359.52 569.43 351.23 566.95 C 349.16 566.33 346.12 565.97 344.48 566.16 L 341.50 566.50 L 341.21 576.25 L 340.93 586.00 L 345.06 586.00 C 347.34 586.00 350.67 585.30 352.46 584.45Z"/></g>
<g fill="#A88A5FFE">
<path d="M 390.60 608.57 C 392.31 607.83 393.99 606.46 394.35 605.53 C 395.30 603.06 395.12 568.73 394.15 567.21 C 393.70 566.50 392.02 565.52 390.41 565.04 C 388.07 564.34 388.89 564.15 394.54 564.09 L 401.58 564.00 L 409.51 581.50 C 413.88 591.12 417.68 598.99 417.97 598.98 C 418.26 598.97 421.88 591.10 426.00 581.49 L 433.50 564.03 L 440.50 564.05 C 447.41 564.08 447.46 564.10 444.25 565.49 L 441.00 566.90 L 441.02 586.20 C 441.02 596.82 441.37 606.04 441.79 606.70 C 442.21 607.36 443.67 608.34 445.03 608.89 C 446.91 609.64 445.10 609.88 437.50 609.90 C 428.03 609.92 427.67 609.85 430.75 608.51 L 434.00 607.10 L 433.98 588.30 L 433.97 569.50 L 424.98 589.42 C 420.04 600.37 415.88 609.45 415.75 609.59 C 415.61 609.73 411.71 601.53 407.08 591.37 C 402.45 581.22 398.29 572.68 397.83 572.39 C 396.86 571.79 396.70 599.24 397.65 603.99 C 398.12 606.34 399.14 607.59 401.40 608.57 C 404.32 609.84 404.00 609.92 396.00 609.92 C 388.00 609.92 387.68 609.84 390.60 608.57Z"/></g>
<g fill="#A88A5FFE">
<path d="M 465.55 608.87 C 468.53 607.42 469.48 605.61 479.06 583.08 C 486.52 565.55 487.90 562.95 488.83 564.68 C 489.42 565.79 493.03 573.86 496.84 582.60 C 506.42 604.61 508.02 607.69 510.41 608.85 C 511.99 609.62 510.29 609.87 503.50 609.87 C 497.44 609.87 495.20 609.59 496.65 609.01 C 500.00 607.65 500.17 606.54 497.94 600.57 L 495.86 595.00 L 486.02 595.00 L 476.19 595.00 L 474.59 599.68 C 472.47 605.92 472.58 607.49 475.25 608.78 C 477.10 609.67 476.25 609.86 470.50 609.86 C 465.15 609.86 463.98 609.63 465.55 608.87Z"/></g>
<g fill="#A88A5FFE">
<path d="M 689.72 608.52 C 691.58 607.71 693.17 606.16 693.50 604.81 C 693.81 603.54 693.94 594.62 693.78 585.00 L 693.50 567.50 L 690.00 565.75 L 686.50 564.00 L 692.50 564.01 L 698.50 564.02 L 712.00 580.98 L 725.50 597.95 L 725.78 583.84 C 726.08 568.54 725.31 565.58 720.77 564.71 C 719.52 564.47 722.33 564.23 727.00 564.18 C 735.15 564.08 735.37 564.14 732.25 565.49 C 730.46 566.27 728.93 567.04 728.84 567.20 C 728.75 567.37 728.41 577.09 728.09 588.82 L 727.50 610.14 L 712.00 590.90 L 696.50 571.67 L 696.20 585.08 C 695.78 603.70 696.32 606.80 700.32 608.54 C 703.35 609.86 703.10 609.92 695.00 609.92 C 686.85 609.92 686.63 609.86 689.72 608.52Z"/></g>
<g fill="#A88A5FFE">
<path d="M 213.75 608.51 L 217.00 607.10 L 217.00 587.17 C 217.00 566.36 216.89 565.80 212.50 564.72 C 211.40 564.45 218.94 564.18 229.25 564.12 L 248.00 564.00 L 248.00 568.50 C 248.00 573.39 246.60 574.53 245.58 570.46 C 244.73 567.07 241.47 566.00 231.93 566.00 L 224.00 566.00 L 224.00 575.50 L 224.00 585.00 L 228.88 585.00 C 237.30 585.00 240.07 584.04 241.57 580.60 C 242.85 577.68 242.92 577.98 242.96 586.00 L 243.00 594.50 L 241.25 591.00 L 239.50 587.50 L 231.75 587.21 L 224.00 586.92 L 224.00 597.01 L 224.00 607.10 L 227.25 608.51 C 230.33 609.85 229.98 609.92 220.50 609.92 C 211.02 609.92 210.67 609.85 213.75 608.51Z"/></g>
<g fill="#A88A5FFE">
<path d="M 540.97 608.89 C 542.33 608.34 543.79 607.36 544.21 606.70 C 544.63 606.04 544.98 596.61 544.98 585.75 L 545.00 566.00 L 542.25 566.01 C 536.00 566.02 532.27 567.87 530.65 571.77 L 529.10 575.50 L 529.05 569.75 L 529.00 564.00 L 548.50 564.00 L 568.00 564.00 L 567.98 569.75 L 567.97 575.50 L 565.71 571.50 C 563.78 568.07 562.79 567.37 558.83 566.60 C 550.84 565.05 551.00 564.69 551.00 583.84 C 551.00 604.85 551.35 606.81 555.40 608.57 C 558.27 609.82 557.75 609.92 548.50 609.90 C 540.90 609.88 539.09 609.64 540.97 608.89Z"/></g>
<g fill="#A88A5FFE">
<path d="M 588.75 608.51 L 592.00 607.10 L 592.00 587.17 C 592.00 566.36 591.89 565.80 587.50 564.72 C 586.40 564.45 590.23 564.21 596.00 564.17 C 605.38 564.12 606.13 564.24 603.00 565.31 L 599.50 566.50 L 599.22 585.00 C 599.06 595.17 599.18 604.50 599.48 605.72 C 599.83 607.15 601.19 608.28 603.26 608.88 C 605.80 609.62 604.22 609.83 596.00 609.87 C 586.11 609.92 585.69 609.84 588.75 608.51Z"/></g>
</svg>
